<svg width="143" height="36" viewBox="0 0 143 36" fill="none" xmlns="http://www.w3.org/2000/svg">
<path d="M46.267 12.9891C45.4898 12.9891 44.7224 12.887 43.9646 12.683C43.2068 12.479 42.5899 12.2021 42.1139 11.8524L42.9736 9.91424C43.4788 10.2348 44.0132 10.4826 44.5766 10.6574C45.1498 10.8226 45.723 10.9052 46.2962 10.9052C46.8791 10.9052 47.326 10.8275 47.6369 10.672C47.9477 10.5069 48.1032 10.2786 48.1032 9.9871C48.1032 9.7248 47.9623 9.51107 47.6806 9.34591C47.3988 9.17104 46.8694 9.00103 46.0922 8.83587C45.111 8.64157 44.3483 8.40355 43.8043 8.12181C43.2602 7.83036 42.8765 7.49034 42.653 7.10173C42.4393 6.71313 42.3324 6.24195 42.3324 5.68819C42.3324 5.05672 42.5122 4.48838 42.8716 3.9832C43.2311 3.4683 43.7363 3.06999 44.3872 2.78825C45.0381 2.4968 45.7813 2.35107 46.6168 2.35107C47.3648 2.35107 48.0886 2.45794 48.7881 2.67167C49.4973 2.87569 50.0511 3.14771 50.4494 3.48774L49.6042 5.42589C49.1476 5.10529 48.6667 4.86241 48.1615 4.69726C47.6563 4.52239 47.1511 4.43495 46.6459 4.43495C46.1505 4.43495 45.7521 4.5321 45.451 4.7264C45.1498 4.91099 44.9992 5.16358 44.9992 5.48418C44.9992 5.65905 45.0527 5.80477 45.1595 5.92135C45.2664 6.03794 45.4656 6.15452 45.757 6.2711C46.0485 6.37796 46.4856 6.49454 47.0685 6.62084C48.0109 6.82485 48.7492 7.07259 49.2836 7.36404C49.8276 7.64578 50.2114 7.98095 50.4348 8.36955C50.6582 8.74843 50.77 9.20504 50.77 9.73937C50.77 10.7497 50.3765 11.5464 49.5896 12.1293C48.8027 12.7025 47.6952 12.9891 46.267 12.9891Z" fill="white"/>
<path d="M57.2384 12.9891C56.1794 12.9891 55.2565 12.7753 54.4696 12.3479C53.6827 11.9107 53.0755 11.2889 52.648 10.4826C52.2303 9.67622 52.0214 8.73386 52.0214 7.65549C52.0214 6.57712 52.2351 5.63962 52.6626 4.84298C53.09 4.04635 53.6924 3.4343 54.4696 3.00684C55.2565 2.56966 56.1794 2.35107 57.2384 2.35107C58.2973 2.35107 59.2154 2.56966 59.9926 3.00684C60.7795 3.4343 61.3818 4.04635 61.7996 4.84298C62.2173 5.63962 62.4262 6.57712 62.4262 7.65549C62.4262 8.73386 62.2173 9.67622 61.7996 10.4826C61.3818 11.2889 60.7795 11.9107 59.9926 12.3479C59.2154 12.7753 58.2973 12.9891 57.2384 12.9891ZM57.2384 10.9052C58.0156 10.9052 58.6228 10.6283 59.0599 10.0745C59.5068 9.52078 59.7303 8.71443 59.7303 7.65549C59.7303 6.60627 59.5068 5.80963 59.0599 5.26559C58.6228 4.71183 58.0156 4.43495 57.2384 4.43495C56.4612 4.43495 55.854 4.70697 55.4168 5.25102C54.9796 5.79506 54.761 6.59655 54.761 7.65549C54.761 8.72415 54.9796 9.53535 55.4168 10.0891C55.854 10.6332 56.4612 10.9052 57.2384 10.9052Z" fill="white"/>
<path d="M64.0246 2.48223H66.7643V10.6429H71.1506V12.8579H64.0246V2.48223Z" fill="white"/>
<path d="M79.5296 10.7157H74.9247L74.0066 12.8579H71.267L76.1196 2.48223H78.2764L83.1436 12.8579H80.4477L79.5296 10.7157ZM78.6407 8.661L77.2272 5.38217L75.8136 8.661H78.6407Z" fill="white"/>
<path d="M92.755 12.8579H89.8551L88.5144 9.4042C88.359 9.0156 87.9947 8.8213 87.4215 8.8213H86.4305V12.8579H83.7346V2.48223H88.5581C89.8114 2.48223 90.7537 2.75425 91.3852 3.29829C92.0167 3.83262 92.3324 4.60011 92.3324 5.60076C92.3324 6.30024 92.143 6.90743 91.7641 7.42233C91.3949 7.92751 90.8703 8.28697 90.1903 8.5007C90.4817 8.55899 90.744 8.695 90.9772 8.90873C91.2103 9.12246 91.3949 9.40906 91.5309 9.76851L92.755 12.8579ZM88.121 6.78114C88.7039 6.78114 89.1265 6.6937 89.3888 6.51883C89.6511 6.33424 89.7822 6.05251 89.7822 5.67362C89.7822 5.2753 89.6511 4.98871 89.3888 4.81384C89.1362 4.63897 88.7136 4.55153 88.121 4.55153H86.4014V6.78114H88.121Z" fill="white"/>
<path d="M46.267 31.4191C45.4898 31.4191 44.7224 31.3171 43.9646 31.1131C43.2068 30.909 42.5899 30.6322 42.1139 30.2824L42.9736 28.3443C43.4788 28.6649 44.0132 28.9126 44.5766 29.0875C45.1498 29.2526 45.723 29.3352 46.2962 29.3352C46.8791 29.3352 47.326 29.2575 47.6369 29.102C47.9477 28.9369 48.1032 28.7086 48.1032 28.4171C48.1032 28.1548 47.9623 27.9411 47.6806 27.7759C47.3988 27.6011 46.8694 27.431 46.0922 27.2659C45.111 27.0716 44.3483 26.8336 43.8043 26.5518C43.2602 26.2604 42.8765 25.9204 42.653 25.5318C42.4393 25.1432 42.3324 24.672 42.3324 24.1182C42.3324 23.4867 42.5122 22.9184 42.8716 22.4132C43.2311 21.8983 43.7363 21.5 44.3872 21.2183C45.0381 20.9268 45.7813 20.7811 46.6168 20.7811C47.3648 20.7811 48.0886 20.888 48.7881 21.1017C49.4973 21.3057 50.0511 21.5777 50.4494 21.9178L49.6042 23.8559C49.1476 23.5353 48.6667 23.2924 48.1615 23.1273C47.6563 22.9524 47.1511 22.865 46.6459 22.865C46.1505 22.865 45.7521 22.9621 45.451 23.1564C45.1498 23.341 44.9992 23.5936 44.9992 23.9142C44.9992 24.0891 45.0527 24.2348 45.1595 24.3514C45.2664 24.468 45.4656 24.5845 45.757 24.7011C46.0485 24.808 46.4856 24.9246 47.0685 25.0509C48.0109 25.2549 48.7492 25.5026 49.2836 25.7941C49.8276 26.0758 50.2114 26.411 50.4348 26.7996C50.6582 27.1785 50.77 27.6351 50.77 28.1694C50.77 29.1798 50.3765 29.9764 49.5896 30.5593C48.8027 31.1325 47.6952 31.4191 46.267 31.4191Z" fill="white"/>
<path d="M61.8579 20.9122V31.2879H59.1765V27.091H54.9796V31.2879H52.2983V20.9122H54.9796V24.9488H59.1765V20.9122H61.8579Z" fill="white"/>
<path d="M70.7206 29.1458H66.1157L65.1976 31.2879H62.458L67.3106 20.9122H69.4674L74.3346 31.2879H71.6387L70.7206 29.1458ZM69.8317 27.091L68.4182 23.8122L67.0046 27.091H69.8317Z" fill="white"/>
<path d="M84.2083 20.9122V31.2879H82.1827L77.4758 25.4006V31.2879H74.9256V20.9122H76.922L81.629 26.7704V20.9122H84.2083Z" fill="white"/>
<path d="M96.5896 20.9122V31.2879H94.1997L94.1851 26.5373L92.2178 31.2879H90.4837L88.5018 26.5956V31.2879H86.1264V20.9122H88.2686L91.3726 27.9945L94.462 20.9122H96.5896Z" fill="white"/>
<path d="M103.053 31.4191C101.538 31.4191 100.391 31.0402 99.6143 30.2824C98.8371 29.5149 98.4485 28.3928 98.4485 26.9161V20.9122H101.115V27.0182C101.115 27.7662 101.28 28.3394 101.611 28.7377C101.951 29.136 102.432 29.3352 103.053 29.3352C103.665 29.3352 104.137 29.136 104.467 28.7377C104.797 28.3297 104.962 27.7565 104.962 27.0182V20.9122H107.658V26.9161C107.658 28.3734 107.26 29.4906 106.463 30.2678C105.676 31.0353 104.54 31.4191 103.053 31.4191Z" fill="white"/>
<path d="M118.66 25.4297V30.6322C118.106 30.8847 117.484 31.079 116.795 31.2151C116.115 31.3511 115.415 31.4191 114.696 31.4191C113.569 31.4191 112.588 31.2053 111.753 30.7779C110.927 30.3504 110.29 29.7384 109.844 28.9417C109.397 28.1354 109.173 27.1833 109.173 26.0855C109.173 25.0169 109.397 24.0842 109.844 23.2876C110.29 22.4812 110.922 21.8643 111.738 21.4369C112.554 20.9997 113.506 20.7811 114.594 20.7811C115.342 20.7811 116.047 20.8782 116.707 21.0725C117.378 21.2668 117.922 21.534 118.339 21.874L117.48 23.8122C117.004 23.5013 116.542 23.2779 116.095 23.1419C115.658 22.9961 115.187 22.9233 114.682 22.9233C113.759 22.9233 113.069 23.1856 112.612 23.7102C112.165 24.2251 111.942 25.0169 111.942 26.0855C111.942 27.193 112.175 28.0139 112.641 28.5483C113.118 29.0826 113.846 29.3498 114.827 29.3498C115.284 29.3498 115.741 29.3012 116.197 29.204V27.2805H114.39V25.4297H118.66Z" fill="white"/>
<path d="M127.389 29.1458H122.784L121.866 31.2879H119.126L123.979 20.9122H126.135L131.003 31.2879H128.307L127.389 29.1458ZM126.5 27.091L125.086 23.8122L123.673 27.091H126.5Z" fill="white"/>
<path d="M142.1 20.9122V31.2879H139.71L139.696 26.5373L137.729 31.2879H135.994L134.013 26.5956V31.2879H131.637V20.9122H133.779L136.883 27.9945L139.973 20.9122H142.1Z" fill="white"/>
<path d="M0 18.645V14.5732L15.2155 23.3596L18.8586 21.2166L22.2875 23.3596L15.2155 27.4314L0 18.645Z" fill="white"/>
<path d="M0 26.4689V22.5022L15.2155 31.2886L25.502 25.2881L0 10.7156V9.64404H5.14326L30.431 24.2166V25.2881V26.3596L15.2155 35.146L0 26.4689Z" fill="white"/>
<path d="M30.431 16.0725L30.431 20.1443L15.2155 11.3579L11.5723 13.5009L8.35781 11.5722L15.2155 7.28613L30.431 16.0725Z" fill="white"/>
<path d="M15.2155 3.85745L5.14326 9.64361H0V8.7864L15.2155 0L30.431 8.7864V12.8582L15.2155 3.85745Z" fill="white"/>
<path d="M0 9.64368V10.7152L25.502 25.2878H30.431V24.2162L5.14326 9.64368H0Z" fill="white"/>
</svg>
