<svg width="20" height="20" viewBox="0 0 20 20" fill="none" xmlns="http://www.w3.org/2000/svg">
<path d="M2.40383 0.0172119C1.07544 0.0172119 0.000214915 1.09437 0 2.41975C0 3.74642 1.07522 4.82336 2.40404 4.82336C3.72921 4.82336 4.80593 3.74642 4.80593 2.41975C4.80593 1.09415 3.72899 0.0172119 2.40383 0.0172119Z" fill="white"/>
<path d="M4.47557 6.64648H0.330505V19.9828H4.47557V6.64648Z" fill="white"/>
<path d="M15.0279 6.31494C13.0116 6.31494 11.6596 7.42046 11.1062 8.46882H11.0507V6.64656H7.07523H7.07501V19.9827H11.2164V13.3852C11.2164 11.6459 11.5476 9.96119 13.7041 9.96119C15.8296 9.96119 15.8579 11.9504 15.8579 13.4968V19.9825H20V12.6676C20 9.07703 19.2252 6.31494 15.0279 6.31494Z" fill="white"/>
</svg>
