
<svg width="125" height="32" viewBox="0 0 125 32" fill="none" xmlns="http://www.w3.org/2000/svg">
<path d="M41.3058 11.9968C40.6271 11.9968 39.9568 11.9077 39.295 11.7295C38.6332 11.5513 38.0944 11.3095 37.6787 11.0041L38.4296 9.31143C38.8708 9.59142 39.3374 9.80777 39.8295 9.96049C40.3301 10.1047 40.8307 10.1768 41.3313 10.1768C41.8403 10.1768 42.2306 10.109 42.5021 9.97322C42.7736 9.82898 42.9094 9.6296 42.9094 9.37506C42.9094 9.14598 42.7863 8.95933 42.5403 8.81509C42.2942 8.66237 41.8318 8.51389 41.1531 8.36966C40.2962 8.19997 39.6301 7.9921 39.155 7.74605C38.6799 7.49152 38.3447 7.19456 38.1496 6.85519C37.9629 6.51581 37.8696 6.10431 37.8696 5.6207C37.8696 5.06921 38.0266 4.57287 38.3405 4.13168C38.6544 3.68201 39.0956 3.33415 39.6641 3.0881C40.2325 2.83357 40.8816 2.7063 41.6112 2.7063C42.2645 2.7063 42.8966 2.79963 43.5075 2.98628C44.1269 3.16446 44.6105 3.40202 44.9584 3.69898L44.2202 5.39162C43.8214 5.11164 43.4015 4.89952 42.9603 4.75529C42.5191 4.60257 42.0779 4.52621 41.6367 4.52621C41.204 4.52621 40.8561 4.61105 40.5931 4.78074C40.3301 4.94195 40.1986 5.16254 40.1986 5.44253C40.1986 5.59525 40.2453 5.72252 40.3386 5.82433C40.4319 5.92614 40.6058 6.02796 40.8604 6.12977C41.1149 6.2231 41.4967 6.32491 42.0058 6.43521C42.8288 6.61338 43.4736 6.82973 43.9402 7.08427C44.4154 7.33032 44.7505 7.62303 44.9456 7.96241C45.1408 8.2933 45.2383 8.69207 45.2383 9.15871C45.2383 10.0411 44.8947 10.7368 44.2075 11.2459C43.5202 11.7465 42.553 11.9968 41.3058 11.9968Z" fill="#004E66"/>
<path d="M50.8874 11.9968C49.9626 11.9968 49.1566 11.8101 48.4693 11.4368C47.7821 11.055 47.2518 10.512 46.8785 9.80777C46.5137 9.10356 46.3312 8.28057 46.3312 7.3388C46.3312 6.39703 46.5179 5.57828 46.8912 4.88256C47.2645 4.18683 47.7906 3.65231 48.4693 3.279C49.1566 2.8972 49.9626 2.7063 50.8874 2.7063C51.8122 2.7063 52.614 2.8972 53.2927 3.279C53.98 3.65231 54.506 4.18683 54.8708 4.88256C55.2357 5.57828 55.4181 6.39703 55.4181 7.3388C55.4181 8.28057 55.2357 9.10356 54.8708 9.80777C54.506 10.512 53.98 11.055 53.2927 11.4368C52.614 11.8101 51.8122 11.9968 50.8874 11.9968ZM50.8874 10.1768C51.5661 10.1768 52.0964 9.93504 52.4782 9.45142C52.8685 8.96781 53.0636 8.2636 53.0636 7.3388C53.0636 6.42248 52.8685 5.72676 52.4782 5.25163C52.0964 4.76802 51.5661 4.52621 50.8874 4.52621C50.2086 4.52621 49.6784 4.76377 49.2966 5.2389C48.9148 5.71403 48.7239 6.414 48.7239 7.3388C48.7239 8.27209 48.9148 8.98054 49.2966 9.46415C49.6784 9.93928 50.2086 10.1768 50.8874 10.1768Z" fill="#004E66"/>
<path d="M56.814 2.82084H59.2066V9.94776H63.0374V11.8822H56.814V2.82084Z" fill="#004E66"/>
<path d="M70.355 10.0114H66.3334L65.5316 11.8822H63.139L67.3769 2.82084H69.2605L73.5112 11.8822H71.1568L70.355 10.0114ZM69.5787 8.21694L68.3442 5.35344L67.1097 8.21694H69.5787Z" fill="#004E66"/>
<path d="M81.9051 11.8822H79.3725L78.2017 8.866C78.0659 8.52662 77.7477 8.35693 77.2472 8.35693H76.3817V11.8822H74.0273V2.82084H78.2398C79.3343 2.82084 80.1573 3.0584 80.7088 3.53353C81.2603 4.00018 81.536 4.67045 81.536 5.54434C81.536 6.15522 81.3706 6.6855 81.0397 7.13517C80.7173 7.57636 80.2591 7.89029 79.6652 8.07695C79.9198 8.12785 80.1488 8.24663 80.3525 8.43329C80.5561 8.61995 80.7173 8.87024 80.8361 9.18416L81.9051 11.8822ZM77.858 6.5752C78.3671 6.5752 78.7362 6.49884 78.9653 6.34612C79.1943 6.18492 79.3089 5.93887 79.3089 5.60798C79.3089 5.26011 79.1943 5.00982 78.9653 4.8571C78.7447 4.70438 78.3756 4.62802 77.858 4.62802H76.3563V6.5752H77.858Z" fill="#004E66"/>
<path d="M41.3058 28.0922C40.6271 28.0922 39.9568 28.0031 39.295 27.825C38.6332 27.6468 38.0944 27.405 37.6787 27.0995L38.4296 25.4069C38.8708 25.6869 39.3374 25.9032 39.8295 26.056C40.3301 26.2002 40.8307 26.2723 41.3313 26.2723C41.8403 26.2723 42.2306 26.2044 42.5021 26.0687C42.7736 25.9245 42.9094 25.7251 42.9094 25.4705C42.9094 25.2415 42.7863 25.0548 42.5403 24.9106C42.2942 24.7578 41.8318 24.6094 41.1531 24.4651C40.2962 24.2954 39.6301 24.0876 39.155 23.8415C38.6799 23.587 38.3447 23.29 38.1496 22.9507C37.9629 22.6113 37.8696 22.1998 37.8696 21.7162C37.8696 21.1647 38.0266 20.6683 38.3405 20.2272C38.6544 19.7775 39.0956 19.4296 39.6641 19.1836C40.2325 18.929 40.8816 18.8018 41.6112 18.8018C42.2645 18.8018 42.8966 18.8951 43.5075 19.0818C44.1269 19.2599 44.6105 19.4975 44.9584 19.7944L44.2202 21.4871C43.8214 21.2071 43.4015 20.995 42.9603 20.8508C42.5191 20.698 42.0779 20.6217 41.6367 20.6217C41.204 20.6217 40.8561 20.7065 40.5931 20.8762C40.3301 21.0374 40.1986 21.258 40.1986 21.538C40.1986 21.6907 40.2453 21.818 40.3386 21.9198C40.4319 22.0216 40.6058 22.1234 40.8604 22.2252C41.1149 22.3186 41.4967 22.4204 42.0058 22.5307C42.8288 22.7089 43.4736 22.9252 43.9402 23.1797C44.4154 23.4258 44.7505 23.7185 44.9456 24.0579C45.1408 24.3888 45.2383 24.7875 45.2383 25.2542C45.2383 26.1366 44.8947 26.8323 44.2075 27.3414C43.5202 27.8419 42.553 28.0922 41.3058 28.0922Z" fill="#004E66"/>
<path d="M54.9217 18.9163V27.9777H52.58V24.3124H48.9148V27.9777H46.573V18.9163H48.9148V22.4416H52.58V18.9163H54.9217Z" fill="#004E66"/>
<path d="M62.6618 26.1069H58.6402L57.8384 27.9777H55.4458L59.6838 18.9163H61.5673L65.818 27.9777H63.4636L62.6618 26.1069ZM61.8855 24.3124L60.651 21.4489L59.4165 24.3124H61.8855Z" fill="#004E66"/>
<path d="M74.441 18.9163V27.9777H72.672L68.5613 22.8361V27.9777H66.3342V18.9163H68.0777L72.1884 24.0324V18.9163H74.441Z" fill="#004E66"/>
<path d="M85.2539 18.9163V27.9777H83.1667L83.154 23.8288L81.4359 27.9777H79.9214L78.1906 23.8797V27.9777H76.1162V18.9163H77.987L80.6978 25.1015L83.3958 18.9163H85.2539Z" fill="#004E66"/>
<path d="M90.899 28.0922C89.5754 28.0922 88.5742 27.7613 87.8955 27.0995C87.2167 26.4293 86.8774 25.4493 86.8774 24.1597V18.9163H89.2063V24.2488C89.2063 24.9021 89.3506 25.4027 89.639 25.7505C89.936 26.0984 90.356 26.2723 90.899 26.2723C91.4335 26.2723 91.845 26.0984 92.1335 25.7505C92.4219 25.3942 92.5662 24.8936 92.5662 24.2488V18.9163H94.9206V24.1597C94.9206 25.4324 94.5727 26.4081 93.877 27.0868C93.1898 27.7571 92.1971 28.0922 90.899 28.0922Z" fill="#004E66"/>
<path d="M104.529 22.8616V27.405C104.045 27.6256 103.502 27.7953 102.9 27.9141C102.306 28.0328 101.695 28.0922 101.067 28.0922C100.083 28.0922 99.2258 27.9056 98.4962 27.5323C97.775 27.1589 97.2193 26.6244 96.829 25.9287C96.4387 25.2245 96.2436 24.393 96.2436 23.4343C96.2436 22.501 96.4387 21.6865 96.829 20.9908C97.2193 20.2865 97.7708 19.7478 98.4835 19.3745C99.1962 18.9927 100.028 18.8018 100.978 18.8018C101.631 18.8018 102.246 18.8866 102.823 19.0563C103.409 19.226 103.884 19.4593 104.249 19.7563L103.498 21.4489C103.082 21.1774 102.679 20.9823 102.289 20.8635C101.907 20.7362 101.495 20.6726 101.054 20.6726C100.248 20.6726 99.6458 20.9017 99.2471 21.3598C98.8568 21.8095 98.6616 22.501 98.6616 23.4343C98.6616 24.4015 98.8653 25.1184 99.2725 25.5851C99.6883 26.0517 100.325 26.285 101.182 26.285C101.58 26.285 101.979 26.2426 102.378 26.1578V24.4779H100.8V22.8616H104.529Z" fill="#004E66"/>
<path d="M112.152 26.1069H108.13L107.328 27.9777H104.936L109.174 18.9163H111.057L115.308 27.9777H112.953L112.152 26.1069ZM111.375 24.3124L110.141 21.4489L108.906 24.3124H111.375Z" fill="#004E66"/>
<path d="M125 18.9163V27.9777H122.913L122.9 23.8288L121.182 27.9777H119.667L117.937 23.8797V27.9777H115.862V18.9163H117.733L120.444 25.1015L123.142 18.9163H125Z" fill="#004E66"/>
<path d="M0.899597 16.9358V13.3798L14.1877 21.0532L17.3694 19.1817L20.3639 21.0532L14.1877 24.6092L0.899597 16.9358Z" fill="#004E66"/>
<path d="M0.899597 23.7688V20.3046L14.1877 27.978L23.1712 22.7376L0.899597 10.011V9.0752H5.39136L27.4758 21.8018V22.7376V23.6734L14.1877 31.3468L0.899597 23.7688Z" fill="#14A066"/>
<path d="M27.476 14.6897L27.476 18.2457L14.1879 10.5722L11.0062 12.4438L8.19888 10.7594L14.1879 7.01627L27.476 14.6897Z" fill="#004E66"/>
<path d="M14.1875 4.0219L5.39117 9.07512H0.899414V8.3265L14.1875 0.653076L27.4757 8.3265V11.8825L14.1875 4.0219Z" fill="#FFAE00"/>
<path d="M0.899414 9.0752V10.011L23.1711 22.7376H27.4757V21.8018L5.39117 9.0752H0.899414Z" fill="#004E66"/>
</svg>
