<svg width="35" height="35" viewBox="0 0 35 35" fill="none" xmlns="http://www.w3.org/2000/svg">
<path d="M17 5.87109L5.51943 4.63418L10.1885 15.1951L17 5.87109ZM6.87096 17.0001C6.87096 14.3743 7.86882 11.9838 9.50773 10.1836L8.0288 8.83723C6.06776 10.9913 4.87096 13.8571 4.87096 17.0001H6.87096ZM10.9812 25.1479C8.48571 23.3011 6.87096 20.3393 6.87096 17.0001H4.87096C4.87096 21.0001 6.80829 24.5478 9.79152 26.7556L10.9812 25.1479Z" fill="#14A066"/>
<path d="M17 28.129L28.4806 29.3659L23.8115 18.805L17 28.129ZM27.129 17C27.129 19.6258 26.1312 22.0163 24.4923 23.8165L25.9712 25.1629C27.9322 23.0088 29.129 20.143 29.129 17H27.129ZM23.3853 9.1366C25.6713 10.9954 27.129 13.8271 27.129 17H29.129C29.129 13.1997 27.3801 9.80714 24.647 7.58484L23.3853 9.1366Z" fill="#14A066"/>
<path fill-rule="evenodd" clip-rule="evenodd" d="M17.103 22.3983C20.0276 22.3983 22.3984 20.0275 22.3984 17.103C22.3984 14.1784 20.0276 11.8076 17.103 11.8076C14.1785 11.8076 11.8077 14.1784 11.8077 17.103C11.8077 20.0275 14.1785 22.3983 17.103 22.3983ZM18.4216 18.4798C18.6334 18.2786 18.7393 18.035 18.7393 17.7491C18.7393 17.5196 18.681 17.3361 18.5646 17.1984C18.4516 17.0572 18.3104 16.9513 18.1409 16.8807C17.975 16.81 17.765 16.7447 17.5108 16.6847V15.6151C17.8144 15.6504 18.1003 15.7457 18.3686 15.901L18.5857 15.3662C18.4445 15.2744 18.2786 15.2003 18.088 15.1438C17.9009 15.0873 17.7085 15.0538 17.5108 15.0432V14.4554H17.0766V15.0538C16.6812 15.0926 16.3793 15.2126 16.1711 15.4138C15.9628 15.6151 15.8586 15.8586 15.8586 16.1446C15.8586 16.3741 15.9151 16.5594 16.0281 16.7006C16.141 16.8383 16.2805 16.9442 16.4464 17.0183C16.6159 17.0889 16.8259 17.1542 17.0766 17.2143V18.2733C16.8753 18.2557 16.6812 18.2115 16.4941 18.1409C16.307 18.0668 16.1481 17.9768 16.0175 17.8709L15.7792 18.4057C15.9169 18.5257 16.1022 18.6246 16.3352 18.7022C16.5682 18.7799 16.8153 18.8276 17.0766 18.8452V19.433H17.5108V18.8399C17.9097 18.7976 18.2133 18.6775 18.4216 18.4798ZM16.6794 16.3935C16.5876 16.3229 16.5417 16.2293 16.5417 16.1128C16.5417 15.9893 16.5859 15.8851 16.6741 15.8004C16.7624 15.7157 16.8965 15.6592 17.0766 15.6309V16.5735C16.9036 16.5241 16.7712 16.4641 16.6794 16.3935ZM17.9238 18.0986C17.8356 18.1798 17.6979 18.2345 17.5108 18.2627V17.3255C17.6873 17.3749 17.8232 17.4367 17.9185 17.5108C18.0138 17.5814 18.0615 17.6767 18.0615 17.7967C18.0615 17.9168 18.0156 18.0174 17.9238 18.0986Z" fill="#FFAE00"/>
</svg>
