<svg width="36" height="37" viewBox="0 0 36 37" fill="none" xmlns="http://www.w3.org/2000/svg">
<path fill-rule="evenodd" clip-rule="evenodd" d="M17.487 28.1247C23.362 28.1247 28.1247 23.362 28.1247 17.4869C28.1247 11.6118 23.362 6.84912 17.487 6.84912C11.6119 6.84912 6.84918 11.6118 6.84918 17.4869C6.84918 23.362 11.6119 28.1247 17.487 28.1247ZM20.1358 20.2528C20.5613 19.8486 20.7741 19.3592 20.7741 18.7848C20.7741 18.3238 20.657 17.955 20.423 17.6785C20.1961 17.3948 19.9124 17.182 19.572 17.0402C19.2387 16.8984 18.8167 16.7672 18.3061 16.6466V14.4978C18.916 14.5687 19.4904 14.7602 20.0294 15.0722L20.4656 13.9978C20.1819 13.8134 19.8486 13.6645 19.4656 13.551C19.0897 13.4375 18.7032 13.3702 18.3061 13.3489V12.1681H17.4338V13.3702C16.6395 13.4482 16.0331 13.6893 15.6147 14.0935C15.1963 14.4978 14.9871 14.9871 14.9871 15.5615C14.9871 16.0225 15.1006 16.3948 15.3275 16.6785C15.5544 16.9551 15.8346 17.1679 16.1679 17.3168C16.5083 17.4586 16.9303 17.5898 17.4338 17.7104V19.8379C17.0296 19.8025 16.6395 19.7138 16.2636 19.572C15.8878 19.4231 15.5686 19.2422 15.3062 19.0295L14.8275 20.1039C15.1041 20.345 15.4764 20.5436 15.9445 20.6996C16.4126 20.8556 16.909 20.9514 17.4338 20.9868V22.1676H18.3061V20.9762C19.1075 20.8911 19.7174 20.65 20.1358 20.2528ZM16.636 16.0615C16.4516 15.9197 16.3594 15.7318 16.3594 15.4977C16.3594 15.2495 16.448 15.0403 16.6253 14.8701C16.8026 14.6999 17.0721 14.5864 17.4338 14.5297V16.4232C17.0863 16.3239 16.8203 16.2034 16.636 16.0615ZM19.1358 19.4869C18.9585 19.65 18.682 19.7599 18.3061 19.8167V17.9338C18.6607 18.0331 18.9337 18.1572 19.1252 18.3061C19.3167 18.4479 19.4124 18.6394 19.4124 18.8805C19.4124 19.1217 19.3202 19.3238 19.1358 19.4869Z" fill="#FFAE00"/>
<path fill-rule="evenodd" clip-rule="evenodd" d="M28.8181 10.4452H21.969V26.4978H17.9791L25.3935 33.561L32.808 26.4978H28.8181V10.4452Z" fill="#14A066"/>
</svg>
