<svg width="35" height="35" viewBox="0 0 35 35" fill="none" xmlns="http://www.w3.org/2000/svg">
<path fill-rule="evenodd" clip-rule="evenodd" d="M13.3189 21.6378C18.4656 21.6378 22.6378 17.4656 22.6378 12.3189C22.6378 7.1722 18.4656 3 13.3189 3C8.1722 3 4 7.1722 4 12.3189C4 17.4656 8.1722 21.6378 13.3189 21.6378ZM15.6393 14.7418C16.012 14.3877 16.1984 13.959 16.1984 13.4558C16.1984 13.052 16.0959 12.729 15.8909 12.4867C15.6921 12.2382 15.4436 12.0518 15.1454 11.9275C14.8534 11.8033 14.4838 11.6883 14.0364 11.5827V9.70032C14.5707 9.76245 15.0739 9.93019 15.5461 10.2035L15.9282 9.26233C15.6797 9.10081 15.3877 8.97034 15.0522 8.87094C14.7229 8.77154 14.3843 8.71252 14.0364 8.69388V7.65948H13.2723V8.71252C12.5765 8.78086 12.0453 8.99208 11.6788 9.3462C11.3122 9.70032 11.129 10.129 11.129 10.6322C11.129 11.036 11.2284 11.3622 11.4272 11.6107C11.626 11.853 11.8714 12.0394 12.1633 12.1698C12.4616 12.2941 12.8312 12.409 13.2723 12.5146V14.3784C12.9182 14.3473 12.5765 14.2697 12.2472 14.1454C11.918 14.015 11.6384 13.8565 11.4085 13.6702L10.9892 14.6114C11.2315 14.8226 11.5576 14.9965 11.9677 15.1332C12.3777 15.2699 12.8126 15.3538 13.2723 15.3848V16.4192H14.0364V15.3755C14.7385 15.301 15.2727 15.0897 15.6393 14.7418ZM12.5734 11.0702C12.4119 10.9459 12.3311 10.7813 12.3311 10.5763C12.3311 10.3589 12.4087 10.1756 12.5641 10.0265C12.7194 9.87738 12.9555 9.77798 13.2723 9.72828V11.387C12.9679 11.3001 12.7349 11.1944 12.5734 11.0702ZM14.7633 14.0709C14.608 14.2138 14.3657 14.3101 14.0364 14.3598V12.7103C14.3471 12.7973 14.5863 12.906 14.754 13.0365C14.9217 13.1607 15.0056 13.3285 15.0056 13.5397C15.0056 13.7509 14.9248 13.928 14.7633 14.0709Z" fill="#FFAE00"/>
<path d="M28.8908 12.1376H16.9694L13.1376 21.0786H18.2467L14.4149 33L30.5939 18.9498H25.4847L28.8908 12.1376Z" fill="#004E66"/>
</svg>
