<svg width="35" height="35" viewBox="0 0 35 35" fill="none" xmlns="http://www.w3.org/2000/svg">
<g clip-path="url(#clip0_146:358)">
<path d="M30.0805 13.9254C30.0679 13.4667 29.7291 13.2729 29.2927 13.2637C28.8528 13.2545 28.4014 13.3141 27.9754 13.2327C27.725 13.1846 27.4207 12.969 27.307 12.7453C26.9739 12.0836 26.7339 11.3761 26.4376 10.6949C26.2802 10.3313 26.3216 10.0424 26.6225 9.77172C26.9073 9.51713 27.1645 9.23273 27.4367 8.96438C27.8077 8.59855 27.8835 8.18112 27.5229 7.79809C26.8154 7.04924 26.0838 6.32103 25.3339 5.61461C24.9744 5.27631 24.5656 5.32332 24.2084 5.6731C23.9351 5.9403 23.6502 6.19947 23.3987 6.48502C23.0978 6.82676 22.7843 6.86117 22.3777 6.67424C21.7369 6.38066 21.0811 6.11346 20.4196 5.87034C20.0418 5.73158 19.8591 5.50796 19.8718 5.10658C19.8833 4.7247 19.8844 4.34167 19.8695 3.95979C19.8442 3.29351 19.6444 3.06759 18.9748 3.01599C18.5177 2.98044 18.0572 3.00911 17.5978 3.00911C17.1189 3.00911 16.6388 2.97929 16.1634 3.01599C15.4915 3.06874 15.2997 3.28892 15.2722 3.96209C15.2561 4.36232 15.3239 4.77745 15.2412 5.16163C15.1872 5.41277 14.9816 5.71897 14.7588 5.83021C14.0961 6.16277 13.3852 6.40016 12.7042 6.69718C12.3401 6.85543 12.0519 6.81874 11.7785 6.51942C11.5086 6.22355 11.2135 5.94947 10.9252 5.66966C10.5669 5.31988 10.1569 5.27975 9.79858 5.61576C9.04863 6.32218 8.31706 7.05039 7.61075 7.80039C7.27655 8.15589 7.3133 8.56644 7.66932 8.92424C7.95299 9.20864 8.22403 9.50681 8.52263 9.77401C8.84995 10.0687 8.84191 10.3738 8.67193 10.7499C8.38137 11.3921 8.11033 12.0435 7.86686 12.7052C7.72789 13.0836 7.50279 13.2637 7.10313 13.2557C6.70116 13.2476 6.2992 13.2614 5.89724 13.258C5.3632 13.2534 5.04278 13.5309 5.0267 14.0412C4.99454 15.0527 4.99454 16.0653 5.02785 17.0768C5.04508 17.594 5.38043 17.8543 5.90872 17.8497C6.31069 17.8462 6.71265 17.8612 7.11461 17.8497C7.49246 17.8394 7.71756 18.0079 7.85422 18.3554C8.12526 19.0469 8.40664 19.735 8.70294 20.4162C8.86028 20.7797 8.81664 21.0699 8.51804 21.3405C8.23437 21.5962 7.97596 21.8806 7.70263 22.1479C7.32823 22.5137 7.25817 22.9334 7.61764 23.3141C8.32395 24.0641 9.05667 24.7912 9.80777 25.4965C10.1684 25.8359 10.5772 25.7832 10.9333 25.4345C11.2066 25.1673 11.4937 24.9105 11.7441 24.6238C12.045 24.2797 12.3585 24.2476 12.7651 24.4334C13.4071 24.7258 14.0605 24.9942 14.7221 25.2384C15.1011 25.3784 15.2779 25.6089 15.2687 26.0068C15.2607 26.4082 15.2733 26.8095 15.2699 27.2109C15.2641 27.7442 15.5398 28.063 16.0554 28.0779C17.0684 28.1077 18.0836 28.1089 19.0966 28.0767C19.6157 28.0607 19.8775 27.7293 19.8718 27.2006C19.8672 26.7992 19.881 26.3978 19.8729 25.9965C19.8649 25.5951 20.0544 25.3761 20.4299 25.2373C21.1087 24.985 21.7599 24.6501 22.4478 24.4323C22.7005 24.352 23.0806 24.4254 23.308 24.5733C23.6537 24.7981 23.9132 25.1513 24.2141 25.4449C24.5495 25.7717 24.9503 25.8462 25.2925 25.5251C26.0724 24.7958 26.8303 24.0389 27.5608 23.2602C27.8823 22.9173 27.8008 22.5171 27.4735 22.1845C27.1921 21.8979 26.9153 21.6066 26.6179 21.3371C26.294 21.0446 26.2929 20.7373 26.464 20.36C26.7545 19.719 27.0267 19.0664 27.2714 18.4059C27.4103 18.0297 27.6343 17.8462 28.0362 17.8543C28.4577 17.8623 28.8792 17.8566 29.2995 17.8462C29.7371 17.8359 30.0725 17.641 30.0839 17.1823C30.1104 16.0963 30.1104 15.0102 30.0805 13.9254ZM17.5794 22.782C13.5851 22.782 10.3475 19.5492 10.3475 15.5607C10.3475 11.5722 13.5851 8.33938 17.5794 8.33938C21.5738 8.33938 24.8113 11.5722 24.8113 15.5607C24.8113 19.5492 21.5738 22.782 17.5794 22.782Z" fill="#004E66"/>
<path fill-rule="evenodd" clip-rule="evenodd" d="M17.5052 23.1124C21.7066 23.1124 25.1125 19.7066 25.1125 15.5052C25.1125 11.3038 21.7066 7.89795 17.5052 7.89795C13.3038 7.89795 9.89796 11.3038 9.89796 15.5052C9.89796 19.7066 13.3038 23.1124 17.5052 23.1124ZM19.3994 17.4831C19.7037 17.1941 19.8559 16.8441 19.8559 16.4333C19.8559 16.1037 19.7722 15.84 19.6048 15.6422C19.4425 15.4393 19.2397 15.2872 18.9962 15.1857C18.7579 15.0843 18.4561 14.9905 18.091 14.9043V13.3676C18.5271 13.4183 18.9379 13.5553 19.3233 13.7784L19.6352 13.0101C19.4324 12.8782 19.194 12.7717 18.9202 12.6906C18.6514 12.6094 18.375 12.5612 18.091 12.546V11.7016H17.4672V12.5612C16.8992 12.617 16.4656 12.7895 16.1663 13.0785C15.8671 13.3676 15.7175 13.7175 15.7175 14.1283C15.7175 14.458 15.7987 14.7242 15.9609 14.9271C16.1232 15.1249 16.3236 15.277 16.5619 15.3835C16.8053 15.485 17.1071 15.5788 17.4672 15.665V17.1865C17.1781 17.1611 16.8992 17.0977 16.6304 16.9963C16.3616 16.8898 16.1334 16.7604 15.9457 16.6083L15.6034 17.3766C15.8012 17.5491 16.0674 17.6911 16.4022 17.8026C16.7369 17.9142 17.0919 17.9827 17.4672 18.008V18.8524H18.091V18.0004C18.6641 17.9396 19.1002 17.7671 19.3994 17.4831ZM16.8966 14.4859C16.7648 14.3844 16.6988 14.2501 16.6988 14.0827C16.6988 13.9052 16.7622 13.7556 16.889 13.6339C17.0158 13.5121 17.2085 13.431 17.4672 13.3904V14.7445C17.2187 14.6735 17.0285 14.5873 16.8966 14.4859ZM18.6843 16.9354C18.5576 17.0521 18.3598 17.1307 18.091 17.1712V15.8248C18.3445 15.8958 18.5398 15.9845 18.6767 16.091C18.8137 16.1924 18.8821 16.3294 18.8821 16.5018C18.8821 16.6742 18.8162 16.8188 18.6843 16.9354Z" fill="#FFAE00"/>
</g>
<path fill-rule="evenodd" clip-rule="evenodd" d="M25.6083 16.4695H20.7104V27.949H17.8571L23.1593 33.0001L28.4615 27.949H25.6083V16.4695Z" fill="#14A066"/>
<defs>
<clipPath id="clip0_146:358">
<rect width="25.102" height="25.102" fill="white" transform="translate(5 3)"/>
</clipPath>
</defs>
</svg>
