<svg width="35" height="35" viewBox="0 0 35 35" fill="none" xmlns="http://www.w3.org/2000/svg">
<path fill-rule="evenodd" clip-rule="evenodd" d="M14.6079 28.9903C15.2275 30.5944 16.7845 31.7322 18.6071 31.7322C20.9741 31.7322 22.8929 29.8134 22.8929 27.4465C22.8929 25.0795 20.9741 23.1608 18.6071 23.1608C17.5409 23.1608 16.5657 23.5501 15.8158 24.1944L7.625 2C6.125 2 5.75 3.96429 5.75 4.94643L14.5893 29.0536L14.6079 28.9903ZM15.9286 27.4465C15.9286 28.9258 17.1278 30.125 18.6072 30.125C20.0865 30.125 21.2857 28.9258 21.2857 27.4465C21.2857 25.9671 20.0865 24.7679 18.6072 24.7679C17.1278 24.7679 15.9286 25.9671 15.9286 27.4465Z" fill="#004E66"/>
<rect x="3.60715" y="5.21423" width="30" height="16.0714" rx="2" fill="#14A066"/>
<path d="M10.37 15.4271C10.37 15.8785 10.1986 16.2614 9.85571 16.5756C9.51857 16.8899 9.02714 17.0728 8.38143 17.1242V18.0928H7.83286V17.1242C7.41571 17.1014 7.01857 17.0242 6.64143 16.8928C6.27 16.7556 5.97286 16.5842 5.75 16.3785L6.06714 15.7099C6.27286 15.8985 6.53286 16.0556 6.84714 16.1814C7.16143 16.3014 7.49 16.3728 7.83286 16.3956V14.4071C7.43286 14.3099 7.09857 14.2042 6.83 14.0899C6.56714 13.9756 6.34429 13.8071 6.16143 13.5842C5.98429 13.3614 5.89571 13.0699 5.89571 12.7099C5.89571 12.2585 6.05857 11.8756 6.38429 11.5614C6.71571 11.2471 7.19857 11.0642 7.83286 11.0128V10.0356H8.38143V11.0042C8.70714 11.0156 9.02143 11.0671 9.32429 11.1585C9.63286 11.2499 9.89857 11.3728 10.1214 11.5271L9.83857 12.2128C9.37571 11.9214 8.89 11.7614 8.38143 11.7328V13.7299C8.79857 13.8328 9.14143 13.9414 9.41 14.0556C9.67857 14.1642 9.90429 14.3299 10.0871 14.5528C10.2757 14.7699 10.37 15.0614 10.37 15.4271ZM6.73571 12.6756C6.73571 12.9214 6.83 13.1128 7.01857 13.2499C7.20714 13.3871 7.47857 13.5014 7.83286 13.5928V11.7414C7.46714 11.7871 7.19286 11.8956 7.01 12.0671C6.82714 12.2328 6.73571 12.4356 6.73571 12.6756ZM8.38143 16.3871C8.76429 16.3528 9.05 16.2556 9.23857 16.0956C9.43286 15.9299 9.53 15.7242 9.53 15.4785C9.53 15.2271 9.43 15.0356 9.23 14.9042C9.03571 14.7671 8.75286 14.6471 8.38143 14.5442V16.3871Z" fill="white"/>
<rect x="13.25" y="5.21423" width="1.07143" height="16.0714" fill="#28B47A"/>
<path d="M17.749 11.773H15.9286V11.1072H20.3202V11.773H18.4999V16.4643H17.749V11.773Z" fill="white"/>
<path d="M24.2626 15.125H21.441L20.8569 16.4643H20.0757L22.4801 11.1072H23.231L25.643 16.4643H24.8466L24.2626 15.125ZM23.9971 14.5128L22.8518 11.8878L21.7065 14.5128H23.9971Z" fill="white"/>
<path d="M29.5206 16.4643L27.9278 14.2526L26.3577 16.4643H25.4854L27.4802 13.7169L25.6068 11.1072H26.4714L27.9581 13.1659L29.4296 11.1072H30.2563L28.3829 13.6939L30.3929 16.4643H29.5206Z" fill="white"/>
<path fill-rule="evenodd" clip-rule="evenodd" d="M10.2849 29.258C9.6653 30.8621 8.10838 31.9999 6.28571 31.9999C3.91878 31.9999 2 30.0811 2 27.7142C2 25.3473 3.91878 23.4285 6.28571 23.4285C7.35192 23.4285 8.3272 23.8178 9.07711 24.4621L17.2679 2.26782C18.7679 2.26782 19.1429 4.23211 19.1429 5.21425L10.3036 29.3214L10.2849 29.258ZM8.96429 27.7142C8.96429 29.1935 7.76506 30.3927 6.28572 30.3927C4.80639 30.3927 3.60715 29.1935 3.60715 27.7142C3.60715 26.2348 4.80639 25.0356 6.28572 25.0356C7.76506 25.0356 8.96429 26.2348 8.96429 27.7142Z" fill="#004E66"/>
</svg>
