<svg width="35" height="35" viewBox="0 0 35 35" fill="none" xmlns="http://www.w3.org/2000/svg">
<path d="M7.96774 25.7742V26.2412C7.96774 26.6335 8.2858 26.9516 8.67814 26.9516C8.9777 26.9516 9.24507 27.1395 9.34654 27.4214L11.1168 32.3387C11.2596 32.7355 11.636 33 12.0577 33H22.7746C23.1835 33 23.5512 32.751 23.7031 32.3714L25.6896 27.405C25.7991 27.1312 26.0644 26.9516 26.3593 26.9516C26.7577 26.9516 27.0806 26.6286 27.0806 26.2303V25.7742C27.0806 25.2219 26.6329 24.7742 26.0806 24.7742H8.96774C8.41546 24.7742 7.96774 25.2219 7.96774 25.7742Z" fill="#004E66"/>
<rect x="16.1936" y="16.0645" width="1.93548" height="7.74194" rx="0.967742" fill="#14A066"/>
<path d="M20.7417 20.3343C19.5832 19.0102 19.0039 16.1138 25.9553 15.1208C25.4587 19.093 24.5153 22.9163 20.7417 20.3343Z" fill="#14A066"/>
<path d="M12.7012 18.9415C11.1224 19.7178 8.17471 19.5277 9.01464 12.5562C12.723 14.0639 16.1718 15.9647 12.7012 18.9415Z" fill="#14A066"/>
<path fill-rule="evenodd" clip-rule="evenodd" d="M17.1613 14.6129C20.3681 14.6129 22.9677 12.0133 22.9677 8.80645C22.9677 5.59964 20.3681 3 17.1613 3C13.9545 3 11.3548 5.59964 11.3548 8.80645C11.3548 12.0133 13.9545 14.6129 17.1613 14.6129ZM18.6071 10.3161C18.8394 10.0955 18.9555 9.82839 18.9555 9.51484C18.9555 9.26323 18.8916 9.06194 18.7639 8.91097C18.64 8.75613 18.4852 8.64 18.2994 8.56258C18.1174 8.48516 17.8871 8.41355 17.6084 8.34774V7.17484C17.9413 7.21355 18.2548 7.31807 18.549 7.48839L18.7871 6.90194C18.6323 6.80129 18.4503 6.72 18.2413 6.65807C18.0361 6.59613 17.8252 6.55936 17.6084 6.54774V5.90323H17.1323V6.55936C16.6987 6.60194 16.3678 6.73355 16.1394 6.9542C15.911 7.17484 15.7968 7.44194 15.7968 7.75549C15.7968 8.0071 15.8587 8.21033 15.9826 8.36516C16.1065 8.51613 16.2594 8.63226 16.4413 8.71355C16.6271 8.79097 16.8574 8.86258 17.1323 8.92839V10.0897C16.9116 10.0703 16.6987 10.0219 16.4936 9.94452C16.2884 9.86323 16.1142 9.76452 15.971 9.64839L15.7097 10.2348C15.8607 10.3665 16.0639 10.4748 16.3194 10.56C16.5748 10.6452 16.8458 10.6974 17.1323 10.7168V11.3613H17.6084V10.711C18.0458 10.6645 18.3787 10.5329 18.6071 10.3161ZM16.6968 8.02839C16.5961 7.95097 16.5458 7.84839 16.5458 7.72065C16.5458 7.58516 16.5942 7.47097 16.691 7.37807C16.7878 7.28516 16.9348 7.22323 17.1323 7.19226V8.22581C16.9426 8.17162 16.7974 8.10581 16.6968 8.02839ZM18.0613 9.89807C17.9645 9.9871 17.8136 10.0471 17.6084 10.0781V9.05033C17.8019 9.10452 17.951 9.17226 18.0555 9.25355C18.16 9.33097 18.2123 9.43549 18.2123 9.5671C18.2123 9.69871 18.1619 9.80904 18.0613 9.89807Z" fill="#FFAE00"/>
</svg>
