<svg width="102" height="20" viewBox="0 0 102 20" fill="none" xmlns="http://www.w3.org/2000/svg">
<path d="M7.37421 3.90459H9.02119V1.0361C8.73705 0.997007 7.75983 0.909058 6.62175 0.909058C4.24712 0.909058 2.62044 2.40269 2.62044 5.14791V7.67439H0V10.8812H2.62044V18.9499H5.83322V10.8819H8.34766L8.74682 7.67514H5.83246V5.46588C5.83322 4.53903 6.08278 3.90459 7.37421 3.90459Z" fill="white"/>
<path d="M55.0212 3.74187C54.2774 4.06812 53.4849 4.28437 52.6587 4.38937C53.5087 3.88187 54.1574 3.08437 54.4624 2.12312C53.6699 2.59562 52.7949 2.92937 51.8624 3.11562C51.1099 2.31437 50.0374 1.81812 48.8674 1.81812C46.5974 1.81812 44.7699 3.66062 44.7699 5.91937C44.7699 6.24437 44.7974 6.55687 44.8649 6.85437C41.4562 6.68812 38.4399 5.05437 36.4137 2.56562C36.0599 3.17937 35.8524 3.88187 35.8524 4.63812C35.8524 6.05812 36.5837 7.31686 37.6737 8.04562C37.0149 8.03312 36.3687 7.84187 35.8212 7.54062C35.8212 7.55312 35.8212 7.56937 35.8212 7.58562C35.8212 9.57812 37.2424 11.2331 39.1062 11.6144C38.7724 11.7056 38.4087 11.7494 38.0312 11.7494C37.7687 11.7494 37.5037 11.7344 37.2549 11.6794C37.7862 13.3031 39.2937 14.4969 41.0862 14.5356C39.6912 15.6269 37.9199 16.2844 36.0024 16.2844C35.6662 16.2844 35.3437 16.2694 35.0212 16.2281C36.8374 17.3994 38.9899 18.0681 41.3112 18.0681C48.8562 18.0681 52.9812 11.8181 52.9812 6.40062C52.9812 6.21937 52.9749 6.04437 52.9662 5.87062C53.7799 5.29312 54.4637 4.57187 55.0212 3.74187Z" fill="white"/>
<path fill-rule="evenodd" clip-rule="evenodd" d="M87.2712 0H94.7712C98.2224 0 101.021 2.79875 101.021 6.25V13.75C101.021 17.2013 98.2224 20 94.7712 20H87.2712C83.8199 20 81.0212 17.2013 81.0212 13.75V6.25C81.0212 2.79875 83.8199 0 87.2712 0ZM94.7712 18.1249C97.1837 18.1249 99.1462 16.1624 99.1462 13.7499V6.24994C99.1462 3.83744 97.1837 1.87494 94.7712 1.87494H87.2712C84.8587 1.87494 82.8962 3.83744 82.8962 6.24994V13.7499C82.8962 16.1624 84.8587 18.1249 87.2712 18.1249H94.7712Z" fill="white"/>
<path fill-rule="evenodd" clip-rule="evenodd" d="M86.0212 10.0002C86.0212 7.23899 88.2599 5.00024 91.0212 5.00024C93.7824 5.00024 96.0212 7.23899 96.0212 10.0002C96.0212 12.7615 93.7824 15.0002 91.0212 15.0002C88.2599 15.0002 86.0212 12.7615 86.0212 10.0002ZM87.8962 10.0004C87.8962 11.7229 89.2987 13.1254 91.0212 13.1254C92.7437 13.1254 94.1462 11.7229 94.1462 10.0004C94.1462 8.27663 92.7437 6.87538 91.0212 6.87538C89.2987 6.87538 87.8962 8.27663 87.8962 10.0004Z" fill="white"/>
<circle cx="96.3962" cy="4.62499" r="0.66625" fill="white"/>
</svg>
