<svg width="88" height="27" viewBox="0 0 88 27" fill="none" xmlns="http://www.w3.org/2000/svg">
<path d="M4.30581 9.99675C3.62705 9.99675 2.95678 9.90767 2.295 9.7295C1.63321 9.55132 1.09445 9.30952 0.678711 9.00408L1.42958 7.31143C1.87077 7.59142 2.33742 7.80777 2.82951 7.96049C3.3301 8.10473 3.83068 8.17684 4.33126 8.17684C4.84033 8.17684 5.23061 8.10897 5.50211 7.97322C5.77361 7.82898 5.90936 7.6296 5.90936 7.37506C5.90936 7.14598 5.78634 6.95933 5.54029 6.81509C5.29424 6.66237 4.83184 6.51389 4.15309 6.36966C3.29616 6.19997 2.63013 5.9921 2.155 5.74605C1.67987 5.49152 1.34474 5.19456 1.1496 4.85519C0.962939 4.51581 0.869611 4.10431 0.869611 3.6207C0.869611 3.06921 1.02657 2.57287 1.3405 2.13168C1.65442 1.68201 2.09561 1.33415 2.66407 1.0881C3.23253 0.833565 3.88158 0.706299 4.61125 0.706299C5.26455 0.706299 5.89664 0.799627 6.50752 0.986285C7.12688 1.16446 7.61049 1.40202 7.95836 1.69898L7.22021 3.39162C6.82144 3.11164 6.40146 2.89952 5.96027 2.75529C5.51908 2.60257 5.07789 2.52621 4.6367 2.52621C4.20399 2.52621 3.85613 2.61105 3.59311 2.78074C3.3301 2.94195 3.19859 3.16254 3.19859 3.44253C3.19859 3.59525 3.24525 3.72252 3.33858 3.82433C3.43191 3.92614 3.60584 4.02796 3.86037 4.12977C4.11491 4.2231 4.49671 4.32491 5.00577 4.43521C5.82876 4.61338 6.47358 4.82973 6.94022 5.08427C7.41535 5.33032 7.75049 5.62303 7.94563 5.96241C8.14077 6.2933 8.23834 6.69207 8.23834 7.15871C8.23834 8.04109 7.89472 8.73682 7.20748 9.24588C6.52024 9.74646 5.55302 9.99675 4.30581 9.99675Z" fill="#004E66"/>
<path d="M13.8874 9.99675C12.9626 9.99675 12.1566 9.8101 11.4693 9.43678C10.7821 9.05498 10.2518 8.51198 9.87849 7.80777C9.51366 7.10356 9.33124 6.28057 9.33124 5.3388C9.33124 4.39703 9.5179 3.57828 9.89121 2.88256C10.2645 2.18683 10.7906 1.65231 11.4693 1.279C12.1566 0.897198 12.9626 0.706299 13.8874 0.706299C14.8122 0.706299 15.614 0.897198 16.2927 1.279C16.98 1.65231 17.506 2.18683 17.8708 2.88256C18.2357 3.57828 18.4181 4.39703 18.4181 5.3388C18.4181 6.28057 18.2357 7.10356 17.8708 7.80777C17.506 8.51198 16.98 9.05498 16.2927 9.43678C15.614 9.8101 14.8122 9.99675 13.8874 9.99675ZM13.8874 8.17684C14.5661 8.17684 15.0964 7.93504 15.4782 7.45142C15.8685 6.96781 16.0636 6.2636 16.0636 5.3388C16.0636 4.42248 15.8685 3.72676 15.4782 3.25163C15.0964 2.76802 14.5661 2.52621 13.8874 2.52621C13.2086 2.52621 12.6784 2.76377 12.2966 3.2389C11.9148 3.71403 11.7239 4.414 11.7239 5.3388C11.7239 6.27209 11.9148 6.98054 12.2966 7.46415C12.6784 7.93928 13.2086 8.17684 13.8874 8.17684Z" fill="#004E66"/>
<path d="M19.814 0.820839H22.2066V7.94776H26.0374V9.88221H19.814V0.820839Z" fill="#004E66"/>
<path d="M33.355 8.0114H29.3334L28.5316 9.88221H26.139L30.3769 0.820839H32.2605L36.5112 9.88221H34.1568L33.355 8.0114ZM32.5787 6.21694L31.3442 3.35344L30.1097 6.21694H32.5787Z" fill="#004E66"/>
<path d="M44.9051 9.88221H42.3725L41.2017 6.866C41.0659 6.52662 40.7477 6.35693 40.2472 6.35693H39.3817V9.88221H37.0273V0.820839H41.2398C42.3343 0.820839 43.1573 1.0584 43.7088 1.53353C44.2603 2.00018 44.536 2.67045 44.536 3.54434C44.536 4.15522 44.3706 4.6855 44.0397 5.13517C43.7173 5.57636 43.2591 5.89029 42.6652 6.07695C42.9198 6.12785 43.1488 6.24663 43.3525 6.43329C43.5561 6.61995 43.7173 6.87024 43.8361 7.18416L44.9051 9.88221ZM40.858 4.5752C41.3671 4.5752 41.7362 4.49884 41.9653 4.34612C42.1943 4.18492 42.3089 3.93887 42.3089 3.60798C42.3089 3.26011 42.1943 3.00982 41.9653 2.8571C41.7447 2.70438 41.3756 2.62802 40.858 2.62802H39.3563V4.5752H40.858Z" fill="#004E66"/>
<path d="M4.30581 26.0922C3.62705 26.0922 2.95678 26.0031 2.295 25.825C1.63321 25.6468 1.09445 25.405 0.678711 25.0995L1.42958 23.4069C1.87077 23.6869 2.33742 23.9032 2.82951 24.056C3.3301 24.2002 3.83068 24.2723 4.33126 24.2723C4.84033 24.2723 5.23061 24.2044 5.50211 24.0687C5.77361 23.9245 5.90936 23.7251 5.90936 23.4705C5.90936 23.2415 5.78634 23.0548 5.54029 22.9106C5.29424 22.7578 4.83184 22.6094 4.15309 22.4651C3.29616 22.2954 2.63013 22.0876 2.155 21.8415C1.67987 21.587 1.34474 21.29 1.1496 20.9507C0.962939 20.6113 0.869611 20.1998 0.869611 19.7162C0.869611 19.1647 1.02657 18.6683 1.3405 18.2272C1.65442 17.7775 2.09561 17.4296 2.66407 17.1836C3.23253 16.929 3.88158 16.8018 4.61125 16.8018C5.26455 16.8018 5.89664 16.8951 6.50752 17.0818C7.12688 17.2599 7.61049 17.4975 7.95836 17.7944L7.22021 19.4871C6.82144 19.2071 6.40146 18.995 5.96027 18.8508C5.51908 18.698 5.07789 18.6217 4.6367 18.6217C4.20399 18.6217 3.85613 18.7065 3.59311 18.8762C3.3301 19.0374 3.19859 19.258 3.19859 19.538C3.19859 19.6907 3.24525 19.818 3.33858 19.9198C3.43191 20.0216 3.60584 20.1234 3.86037 20.2252C4.11491 20.3186 4.49671 20.4204 5.00577 20.5307C5.82876 20.7089 6.47358 20.9252 6.94022 21.1797C7.41535 21.4258 7.75049 21.7185 7.94563 22.0579C8.14077 22.3888 8.23834 22.7875 8.23834 23.2542C8.23834 24.1366 7.89472 24.8323 7.20748 25.3414C6.52024 25.8419 5.55302 26.0922 4.30581 26.0922Z" fill="#004E66"/>
<path d="M17.9217 16.9163V25.9777H15.58V22.3124H11.9148V25.9777H9.57305V16.9163H11.9148V20.4416H15.58V16.9163H17.9217Z" fill="#004E66"/>
<path d="M25.6618 24.1069H21.6402L20.8384 25.9777H18.4458L22.6838 16.9163H24.5673L28.818 25.9777H26.4636L25.6618 24.1069ZM24.8855 22.3124L23.651 19.4489L22.4165 22.3124H24.8855Z" fill="#004E66"/>
<path d="M37.441 16.9163V25.9777H35.672L31.5613 20.8361V25.9777H29.3342V16.9163H31.0777L35.1884 22.0324V16.9163H37.441Z" fill="#004E66"/>
<path d="M48.2539 16.9163V25.9777H46.1667L46.154 21.8288L44.4359 25.9777H42.9214L41.1906 21.8797V25.9777H39.1162V16.9163H40.987L43.6978 23.1015L46.3958 16.9163H48.2539Z" fill="#004E66"/>
<path d="M53.899 26.0922C52.5754 26.0922 51.5742 25.7613 50.8955 25.0995C50.2167 24.4293 49.8774 23.4493 49.8774 22.1597V16.9163H52.2063V22.2488C52.2063 22.9021 52.3506 23.4027 52.639 23.7505C52.936 24.0984 53.356 24.2723 53.899 24.2723C54.4335 24.2723 54.845 24.0984 55.1335 23.7505C55.4219 23.3942 55.5662 22.8936 55.5662 22.2488V16.9163H57.9206V22.1597C57.9206 23.4324 57.5727 24.4081 56.877 25.0868C56.1898 25.7571 55.1971 26.0922 53.899 26.0922Z" fill="#004E66"/>
<path d="M67.5286 20.8616V25.405C67.045 25.6256 66.502 25.7953 65.8996 25.9141C65.3057 26.0328 64.6948 26.0922 64.067 26.0922C63.0828 26.0922 62.2258 25.9056 61.4962 25.5323C60.775 25.1589 60.2193 24.6244 59.829 23.9287C59.4387 23.2245 59.2436 22.393 59.2436 21.4343C59.2436 20.501 59.4387 19.6865 59.829 18.9908C60.2193 18.2865 60.7708 17.7478 61.4835 17.3745C62.1962 16.9927 63.0276 16.8018 63.9779 16.8018C64.6312 16.8018 65.2463 16.8866 65.8232 17.0563C66.4087 17.226 66.8838 17.4593 67.2486 17.7563L66.4978 19.4489C66.082 19.1774 65.679 18.9823 65.2887 18.8635C64.9069 18.7362 64.4954 18.6726 64.0542 18.6726C63.2482 18.6726 62.6458 18.9017 62.2471 19.3598C61.8568 19.8095 61.6616 20.501 61.6616 21.4343C61.6616 22.4015 61.8653 23.1184 62.2725 23.5851C62.6883 24.0517 63.3246 24.285 64.1815 24.285C64.5803 24.285 64.979 24.2426 65.3778 24.1578V22.4779H63.7997V20.8616H67.5286Z" fill="#004E66"/>
<path d="M75.1516 24.1069H71.13L70.3282 25.9777H67.9356L72.1736 16.9163H74.0571L78.3078 25.9777H75.9534L75.1516 24.1069ZM74.3753 22.3124L73.1408 19.4489L71.9063 22.3124H74.3753Z" fill="#004E66"/>
<path d="M87.9998 16.9163V25.9777H85.9127L85.8999 21.8288L84.1818 25.9777H82.6674L80.9365 21.8797V25.9777H78.8621V16.9163H80.7329L83.4437 23.1015L86.1417 16.9163H87.9998Z" fill="#004E66"/>
</svg>
